<svg xmlns="http://www.w3.org/2000/svg" viewBox="0 0 376.86 377.91"><defs><style>.cls-1{fill:#fefefe;}.cls-2{fill:#4cae50;}.cls-3{fill:#5eb661;}.cls-4{fill:#7ac37d;}.cls-5{fill:#6ebe71;}.cls-6{fill:#388d3c;}</style></defs><g id="Слой_2" data-name="Слой 2"><g id="Слой_1-2" data-name="Слой 1"><path class="cls-1" d="M1.13,26c0-7.69.06-15.38,0-23.07C.86.45,2.69,1.2,4.43,1.14c122.5,3.33,254.47-6.4,372.43,3.29q-.12,184.53,0,369.05c-118,9.68-249.88,0-372.43,3.37-9.68-101.28,0-216.43-3.3-322.25,2.07.4,1.61,2.13,1.7,3.45,2.56,35.4,6.71,73.06,28.34,102.54,24,31.79,71.33,35.6,105.19,18.57,3-2.38,5.52-.93,6.58,2.44,22.52,51.38,29.45,108.33,29.12,164-1.71,16,17.39,17,15.5.06.23-47.85,9.6-96.72,34.63-138,1.14-2.91,4.08-5.64,6.81-2.62,25.57,19.79,62.24,23,91.51,9.83,33.12-15.2,44.69-53.73,50.08-87,2.83-22.83,5.94-46.61,3.52-69.47-1.3-8.56-41.23-2.57-49.37-2.92C245.54,60,182.6,97.81,214.42,185.24a5.71,5.71,0,0,1-.57,7.08,199.82,199.82,0,0,0-29.61,65.24c-.28,4.53-3.67,4.44-3.91-.3a352.09,352.09,0,0,0-26.79-89.37c7.73-12.92,14.77-26,16.16-41.41,10.67-67.42-41.7-96.91-100.91-103A391.91,391.91,0,0,0,13,20.39c-4.55.06-8.54.4-10.65,5.14A1.07,1.07,0,0,1,1.13,26Z"/><path class="cls-2" d="M140.24,178.41c-32.34,16.69-71.93,17-100.91-7.35C8,141.51,5.47,94.31,1.13,54.6c.15-9.58.66-19,0-28.56C2.7,11,73.55,23.56,86.38,25.3,123,32,163.92,51.25,169.89,92c5.11,26.65.41,53.91-15.81,76.05-11.85-19.27-23.71-40-41.62-55.35-9.27-8.52-19.68-15.61-30-22.78C75,84.54,66,94.64,73,101.28,100.62,121.39,128.84,145.4,140.24,178.41Z"/><path class="cls-3" d="M1.13,30.43c1.45,1.81.44,3.92.72,5.87-.25.33-.48.32-.72,0Z"/><path class="cls-4" d="M1.83,40.7c-.3,1.94.82,4-.7,5.84V40.68C1.37,40.34,1.6,40.36,1.83,40.7Z"/><path class="cls-5" d="M1.83,40.7l-.7,0V36.29h.72C1.84,37.77,1.84,39.23,1.83,40.7Z"/><path class="cls-2" d="M215,188.59a98.57,98.57,0,0,1-2.76-79.49c16.2-36.87,59.69-47.9,96.08-53a440.45,440.45,0,0,1,56.95-3.25c7.59,0,10.81,3,10.76,10.5-.74,43-2.42,89-25.69,126.64C324.1,231.23,262,233.89,225.94,203.92c15.16-30.26,45.87-52.25,76-67.19,3.47-2.13,5-5.91,3.65-9-7.85-17.37-55.57,24.37-64.29,32.39a225,225,0,0,0-22.86,25.54C217.53,186.86,216.92,188.53,215,188.59Z"/><path class="cls-6" d="M215,188.59a204.06,204.06,0,0,1,78-65.32c10.5-5.52,20.16,8.44,9.21,14.36-7.84,3.94-15.71,7.81-23,12.66-56.67,35.54-84.31,102.19-89.23,166.88-.94,10.69-1.36,21.4-1.5,32.13-.08,6.7-3.75,10.5-9.32,10-6-.37-8.1-6.34-7.8-11.6-.09-28.19-1.77-56.28-6.15-84.15C156,202.93,131.77,139.3,77.11,106c-11.86-5.36-8.66-23.06,5.07-17.38,25.54,16.82,48.6,37.54,63.86,64.36,19.91,33.13,29.31,70.69,36.3,108.34C188.56,234.51,199.69,210.81,215,188.59Z"/></g></g></svg>